<svg width="65.202" height="70.401" viewBox="0 0 65.202 70.401" xmlns="http://www.w3.org/2000/svg"><g id="svgGroup" stroke-linecap="round" fill-rule="evenodd" font-size="9pt" stroke="#118B50" stroke-width="0.25mm" fill="#118B50" style="stroke:#118B50;stroke-width:0.25mm;fill:#118B50"><path d="M 30.502 6.801 L 30.602 6.801 A 23.916 23.916 0 0 1 42.747 0.632 A 34.444 34.444 0 0 1 49.502 0.001 A 36.021 36.021 0 0 1 54.383 0.307 Q 60.093 1.091 63.061 3.88 A 9.631 9.631 0 0 1 64.002 4.901 A 5.767 5.767 0 0 1 64.843 6.301 A 4.675 4.675 0 0 1 65.202 8.101 Q 65.202 11.169 61.57 12.681 A 11.827 11.827 0 0 1 61.002 12.901 A 16.337 16.337 0 0 1 57.342 13.871 A 21.883 21.883 0 0 1 54.102 14.101 A 32.225 32.225 0 0 1 51.395 13.982 A 37.862 37.862 0 0 1 50.102 13.851 A 30.763 30.763 0 0 1 47.399 13.401 A 36.684 36.684 0 0 1 45.702 13.001 A 25.99 25.99 0 0 1 43.566 12.516 Q 42.542 12.236 41.668 11.889 A 14.257 14.257 0 0 1 41.102 11.651 Q 39.202 10.801 37.902 9.901 A 1.758 1.758 0 0 1 37.825 9.819 Q 37.717 9.696 37.704 9.621 A 0.117 0.117 0 0 1 37.702 9.601 A 0.432 0.432 0 0 1 37.717 9.482 Q 37.755 9.349 37.891 9.313 A 0.442 0.442 0 0 1 38.002 9.301 Q 38.135 9.301 38.225 9.345 A 0.296 0.296 0 0 1 38.302 9.401 A 20.084 20.084 0 0 0 43.676 11.765 Q 46.109 12.46 49.009 12.764 A 46.015 46.015 0 0 0 53.802 13.001 A 16.745 16.745 0 0 0 55.523 12.916 A 12.928 12.928 0 0 0 56.902 12.701 A 26.159 26.159 0 0 0 58.574 12.286 A 21.712 21.712 0 0 0 59.502 12.001 A 8.857 8.857 0 0 0 60.926 11.202 Q 62.802 9.885 62.802 8.001 A 4.517 4.517 0 0 0 61.087 4.46 Q 59.816 3.367 57.602 2.601 Q 53.702 1.201 49.502 1.201 A 29.094 29.094 0 0 0 43.216 1.831 Q 39.391 2.679 36.636 4.665 A 14.866 14.866 0 0 0 32.402 9.401 A 10.757 10.757 0 0 0 31.101 13.18 A 10.196 10.196 0 0 0 31.002 14.601 Q 31.002 20.701 37.802 25.301 Q 40.902 27.301 44.052 29.301 Q 47.202 31.301 50.302 33.301 A 20.026 20.026 0 0 1 54.577 38.057 A 16.432 16.432 0 0 1 57.102 47.001 Q 57.102 58.001 45.702 64.801 A 42.173 42.173 0 0 1 25.213 70.388 A 49.93 49.93 0 0 1 24.102 70.401 Q 15.965 70.401 10.15 67.726 A 23.145 23.145 0 0 1 8.002 66.601 A 17.288 17.288 0 0 1 3.325 62.787 Q 0.002 58.837 0.002 53.101 A 18.498 18.498 0 0 1 1.836 44.81 A 18.712 18.712 0 0 1 6.502 38.901 Q 12.902 33.401 21.402 33.401 Q 26.102 33.401 26.102 34.201 Q 26.102 34.374 23.454 34.397 A 99.985 99.985 0 0 1 22.602 34.401 Q 14.702 34.401 8.802 39.201 A 15.673 15.673 0 0 0 2.583 50.642 A 20.918 20.918 0 0 0 2.502 52.501 A 18.145 18.145 0 0 0 3.352 58.189 A 14.63 14.63 0 0 0 8.302 65.201 A 20.325 20.325 0 0 0 19.223 69.568 A 26.411 26.411 0 0 0 21.902 69.701 A 35.683 35.683 0 0 0 29.589 68.815 Q 33.667 67.915 38.102 66.101 A 33.495 33.495 0 0 0 44.794 62.561 Q 53.002 56.826 53.002 47.401 Q 53.002 43.801 51.302 40.551 A 15.202 15.202 0 0 0 48.34 36.651 A 19.802 19.802 0 0 0 46.102 34.801 A 70.128 70.128 0 0 0 40.049 30.767 A 64.761 64.761 0 0 0 39.852 30.651 A 104.552 104.552 0 0 1 34.301 27.145 A 114.626 114.626 0 0 1 33.502 26.601 Q 30.102 24.301 28.402 21.401 Q 26.702 18.501 26.702 15.401 A 11.222 11.222 0 0 1 29.095 8.487 A 14.928 14.928 0 0 1 30.002 7.401 A 7.125 7.125 0 0 0 25.51 9.615 A 9.665 9.665 0 0 0 24.902 10.301 A 11.332 11.332 0 0 0 23.483 12.924 A 9.027 9.027 0 0 0 22.902 16.101 Q 22.902 19.401 24.502 22.401 A 15.029 15.029 0 0 0 26.84 25.617 A 20.474 20.474 0 0 0 29.402 27.901 Q 32.302 30.101 35.352 32.151 Q 38.402 34.201 41.402 36.201 Q 47.802 41.401 47.802 48.701 Q 47.802 55.701 40.602 61.901 Q 37.202 64.901 33.602 66.351 A 20.107 20.107 0 0 1 29.141 67.597 A 17.348 17.348 0 0 1 26.502 67.801 A 1.246 1.246 0 0 1 26.332 67.79 Q 26.143 67.764 26.062 67.673 A 0.25 0.25 0 0 1 26.002 67.501 Q 26.002 66.901 26.702 66.901 Q 28.222 66.722 29.423 66.463 A 19.839 19.839 0 0 0 29.702 66.401 Q 31.002 66.101 32.002 65.801 Q 37.402 63.601 41.502 59.101 A 21.348 21.348 0 0 0 44.11 55.49 Q 45.529 52.975 45.884 50.414 A 12.474 12.474 0 0 0 46.002 48.701 Q 46.002 45.201 44.452 42.101 A 14.614 14.614 0 0 0 41.562 38.189 A 18.646 18.646 0 0 0 39.702 36.601 Q 36.902 34.401 33.902 32.501 Q 30.902 30.601 28.002 28.401 A 17.259 17.259 0 0 1 25.142 25.816 A 13.661 13.661 0 0 1 23.152 22.851 Q 21.602 19.701 21.602 16.201 Q 21.602 12.501 24.102 9.701 A 9.703 9.703 0 0 1 26.125 8.024 A 8.782 8.782 0 0 1 27.002 7.551 Q 28.602 6.801 30.502 6.801 Z" vector-effect="non-scaling-stroke"/></g></svg>